<svg xmlns="http://www.w3.org/2000/svg" viewBox="0 0 680 300" role="img" aria-label="What the tool loads when you pick a country. General government gross debt, percent of GDP. The figure you sanity-check on the Baseline chart is the last of these." preserveAspectRatio="xMidYMid meet"><title>What the tool loads when you pick a country</title><style>.qcf-sans{font-family:"Söhne","Inter",system-ui,-apple-system,sans-serif;}</style><text class="qcf-sans" x="0.0" y="18.0" font-size="15" font-weight="600" fill="#2C3E50" text-anchor="start">What the tool loads when you pick a country</text><text class="qcf-sans" x="0.0" y="36.0" font-size="11.5" font-weight="400" fill="#63757F" text-anchor="start">General government gross debt, percent of GDP. The figure you sanity-check on the Baseline chart is the last of these.</text><clipPath id="qcf-clip-1"><rect x="45.0" y="61.0" width="552.0" height="184.0"/></clipPath><rect x="497.8" y="62.0" width="98.2" height="182.0" fill="#F2F5F7"/><text class="qcf-sans" x="501.8" y="74.0" font-size="9.5" font-weight="400" fill="#63757F" text-anchor="start">WEO forecast</text><line x1="46.0" y1="244.0" x2="596.0" y2="244.0" stroke="#E6EBEF" stroke-width="1"/><text class="qcf-sans" x="39.0" y="247.5" font-size="10" font-weight="400" fill="#63757F" text-anchor="end">0%</text><line x1="46.0" y1="202.6" x2="596.0" y2="202.6" stroke="#E6EBEF" stroke-width="1"/><text class="qcf-sans" x="39.0" y="206.1" font-size="10" font-weight="400" fill="#63757F" text-anchor="end">25%</text><line x1="46.0" y1="161.3" x2="596.0" y2="161.3" stroke="#E6EBEF" stroke-width="1"/><text class="qcf-sans" x="39.0" y="164.8" font-size="10" font-weight="400" fill="#63757F" text-anchor="end">50%</text><line x1="46.0" y1="119.9" x2="596.0" y2="119.9" stroke="#E6EBEF" stroke-width="1"/><text class="qcf-sans" x="39.0" y="123.4" font-size="10" font-weight="400" fill="#63757F" text-anchor="end">75%</text><line x1="46.0" y1="78.5" x2="596.0" y2="78.5" stroke="#E6EBEF" stroke-width="1"/><text class="qcf-sans" x="39.0" y="82.0" font-size="10" font-weight="400" fill="#63757F" text-anchor="end">100%</text><line x1="46.0" y1="244.0" x2="596.0" y2="244.0" stroke="#C4CED5" stroke-width="1"/><text class="qcf-sans" x="46.0" y="259.0" font-size="10" font-weight="400" fill="#63757F" text-anchor="middle">2001</text><text class="qcf-sans" x="183.5" y="259.0" font-size="10" font-weight="400" fill="#63757F" text-anchor="middle">2008</text><text class="qcf-sans" x="321.0" y="259.0" font-size="10" font-weight="400" fill="#63757F" text-anchor="middle">2015</text><text class="qcf-sans" x="458.5" y="259.0" font-size="10" font-weight="400" fill="#63757F" text-anchor="middle">2022</text><text class="qcf-sans" x="596.0" y="259.0" font-size="10" font-weight="400" fill="#63757F" text-anchor="middle">2029</text><polyline clip-path="url(#qcf-clip-1)" points="46.0,83.0 65.6,66.4 85.3,72.4 104.9,73.4 124.6,114.6 144.2,114.8 163.9,172.8 183.5,174.8 203.1,194.4 222.8,178.8 242.4,170.3 262.1,178.9 281.7,171.0 301.4,170.9 321.0,160.0 340.6,158.3 360.3,152.5 379.9,147.3 399.6,153.5 419.2,155.2 438.9,155.0 458.5,166.4 478.1,179.9 497.8,188.5 517.4,174.9 537.1,181.6 556.7,186.1 576.4,189.4 596.0,192.1" fill="none" stroke="#2a78d6" stroke-width="2" stroke-linejoin="round" stroke-linecap="round"/><circle cx="596.0" cy="192.1" r="3.2" fill="#2a78d6" stroke="#FFFFFF" stroke-width="2"/><polyline clip-path="url(#qcf-clip-1)" points="46.0,153.2 65.6,159.8 85.3,167.3 104.9,169.6 124.6,170.4 144.2,180.3 163.9,186.0 183.5,185.9 203.1,175.4 222.8,179.2 242.4,178.9 262.1,177.9 281.7,174.4 301.4,172.8 321.0,174.4 340.6,176.1 360.3,176.0 379.9,175.5 399.6,176.4 419.2,161.1 438.9,148.6 458.5,145.2 478.1,141.2 497.8,135.9 517.4,135.8 537.1,135.3 556.7,135.5 576.4,135.7 596.0,135.9" fill="none" stroke="#eb6834" stroke-width="2" stroke-linejoin="round" stroke-linecap="round"/><circle cx="596.0" cy="135.9" r="3.2" fill="#eb6834" stroke="#FFFFFF" stroke-width="2"/><polyline clip-path="url(#qcf-clip-1)" points="46.0,159.0 65.6,153.5 85.3,152.8 104.9,163.0 124.6,173.6 144.2,198.1 163.9,215.9 183.5,218.1 203.1,219.5 222.8,213.6 242.4,214.3 262.1,211.8 281.7,207.5 301.4,203.0 321.0,197.6 340.6,192.2 360.3,188.3 379.9,186.3 399.6,181.9 419.2,167.3 438.9,160.6 458.5,161.3 478.1,159.6 497.8,159.0 517.4,160.8 537.1,169.9 556.7,175.0 576.4,179.4 596.0,183.9" fill="none" stroke="#1baf7a" stroke-width="2" stroke-linejoin="round" stroke-linecap="round"/><circle cx="596.0" cy="183.9" r="3.2" fill="#1baf7a" stroke="#FFFFFF" stroke-width="2"/><text class="qcf-sans" x="604.0" y="139.4" font-size="11" font-weight="600" fill="#2C3E50" text-anchor="start">Thailand</text><text class="qcf-sans" x="604.0" y="187.4" font-size="11" font-weight="600" fill="#2C3E50" text-anchor="start">Uganda</text><text class="qcf-sans" x="604.0" y="200.4" font-size="11" font-weight="600" fill="#2C3E50" text-anchor="start">Ethiopia</text><text class="qcf-sans" x="0.0" y="294.0" font-size="9.5" font-weight="400" fill="#63757F" text-anchor="start">Source: IMF World Economic Outlook, October 2024, as bundled with Q-CRAFT Explorer. Shaded years are the forecast.</text></svg>
